<svg width="19" height="23" viewBox="0 0 19 23" fill="none" xmlns="http://www.w3.org/2000/svg">
<g clip-path="url(#clip0_2_700)">
<path d="M1.48199 5.45423L0.521261 19.8217C0.521261 19.8752 0.521261 19.9287 0.521261 19.9821C0.519916 20.3113 0.584676 20.6375 0.711842 20.9421C0.839009 21.2467 1.02609 21.5238 1.26241 21.7575C1.49873 21.9911 1.77965 22.1769 2.08914 22.3041C2.39863 22.4312 2.73063 22.4974 3.06618 22.4987H16.1076C16.4425 22.477 16.7698 22.3908 17.0707 22.2451C17.3716 22.0993 17.6403 21.8968 17.8615 21.6492C18.0826 21.4015 18.2519 21.1135 18.3595 20.8017C18.4672 20.4898 18.5112 20.1603 18.489 19.8317L17.518 5.45423H1.48199Z" fill="black"/>
<path d="M6.13229 4.01046C6.09633 3.56106 6.15551 3.10921 6.30613 2.68333C6.45675 2.25745 6.69554 1.86673 7.0075 1.53574C7.31946 1.20474 7.69784 0.940631 8.11886 0.759999C8.53988 0.579367 8.99444 0.48612 9.45397 0.48612C9.9135 0.48612 10.3681 0.579367 10.7891 0.759999C11.2101 0.940631 11.5885 1.20474 11.9004 1.53574C12.2124 1.86673 12.4512 2.25745 12.6018 2.68333C12.7524 3.10921 12.8116 3.56106 12.7756 4.01046" fill="black"/>
</g>
<defs>
<clipPath id="clip0_2_700">
<rect width="19" height="23" fill="white"/>
</clipPath>
</defs>
</svg>
