<svg width="160" height="30" viewBox="0 0 160 30" fill="none" xmlns="http://www.w3.org/2000/svg">
<g clip-path="url(#clip0_2_742)">
<path d="M30 0H0V30H30V0Z" fill="#00B67A"/>
<path d="M62.5 0H32.5V30H62.5V0Z" fill="#00B67A"/>
<path d="M95 0H65V30H95V0Z" fill="#00B67A"/>
<path d="M127.5 0H97.5V30H127.5V0Z" fill="#00B67A"/>
<path d="M160 0H145V30H160V0Z" fill="#DCDCE6"/>
<path d="M145 0H130V30H145V0Z" fill="#00B67A"/>
<path d="M15 20.2187L19.5625 19.0625L21.4687 24.9375L15 20.2187ZM25.5 12.625H17.4688L15 5.0625L12.5312 12.625H4.5L11 17.3125L8.53125 24.875L15.0312 20.1875L19.0312 17.3125L25.5 12.625Z" fill="white"/>
<path d="M47.5 20.2187L52.0625 19.0625L53.9687 24.9375L47.5 20.2187ZM58 12.625H49.9687L47.5 5.0625L45.0312 12.625H37L43.5 17.3125L41.0312 24.875L47.5312 20.1875L51.5312 17.3125L58 12.625Z" fill="white"/>
<path d="M80 20.2187L84.5625 19.0625L86.4688 24.9375L80 20.2187ZM90.5 12.625H82.4688L80 5.0625L77.5313 12.625H69.5L76 17.3125L73.5313 24.875L80.0313 20.1875L84.0313 17.3125L90.5 12.625Z" fill="white"/>
<path d="M112.5 20.2187L117.063 19.0625L118.969 24.9375L112.5 20.2187ZM123 12.625H114.969L112.5 5.0625L110.031 12.625H102L108.5 17.3125L106.031 24.875L112.531 20.1875L116.531 17.3125L123 12.625Z" fill="white"/>
<path d="M145 20.2187L149.563 19.0625L151.469 24.9375L145 20.2187ZM155.5 12.625H147.469L145 5.0625L142.531 12.625H134.5L141 17.3125L138.531 24.875L145.031 20.1875L149.031 17.3125L155.5 12.625Z" fill="white"/>
</g>
<defs>
<clipPath id="clip0_2_742">
<rect width="160" height="30" fill="white"/>
</clipPath>
</defs>
</svg>
